# xmcd
#
# Track frame offsets: 
#        150
#        11725
#        25415
#        37955
#        49107
#        67077
#        79232
#        92335
#        105922
#        117600
#        128492
#        138570
#        166920
#        176202
#        183622
#        196062
#        207185
#        221167
#        230925
#        243627
#
# Disc length: 3415 seconds
#
# Revision: 1
# Processed by: cddbd v1.5.2PL0 Copyright (c) Steve Scherf et al.
# Submitted via: ExactAudioCopy v0.99pb4
#
DISCID=230d5514
DTITLE=Various Artist - Twenty Gospel Greats
DYEAR=1992
DGENRE=Gospel
TTITLE0=The Highway QCs - Walk With Me
TTITLE1=The Swan Silvertones - How I Got Over
TTITLE2=The Caravans - My Religion
TTITLE3=The Five Blind Boys Of Alabama - I Can See Everybody's Mother
TTITLE4=The Greater Harvest Choir - He Has A Way
TTITLE5=The Argo Sisters - Jesus Is The Answer
TTITLE6=The Harmonizing Four - When Tears Are Falling
TTITLE7=The Staple Singers - Uncloudy Day
TTITLE8=The Soul Stirrers - My Loved Ones
TTITLE9=The Original 5 Blind Boys Of Mississippi - I've Been Weeping A
TTITLE9=Mighty Long Time
TTITLE10=The Bells Of Joy - Have I Told You About My Religion
TTITLE11=Aretha Franklin - Precious Lord Part 1 and 2
TTITLE12=The Five Blind Boys Of Alabama - What He's Done For Me
TTITLE13=The Argo Singers - See How He Kept Me
TTITLE14=The Swan Silvertones - That Day On Calvary
TTITLE15=The Caravans - It's Jesus In Me
TTITLE16=The Harmonizing Four - Wade In The Water
TTITLE17=The Highway QCs - It's Me
TTITLE18=The Staple Singers - Will The Circle Be Unbroken
TTITLE19=The Swan Silvertones - Oh, Mary Don't You Weep
EXTD=Charly CDCD 1074 YEAR: 1992 ID3G: 38
EXTT0=Highway QCs, The
EXTT1=Swan Sillvertones, The
EXTT2=Caravans, The
EXTT3=Five Blind Boys of Alabama, The
EXTT4=Yesterday: 08.05.2006
EXTT5=Argo Singers, The
EXTT6=Harmonizing Four, The
EXTT7=Staple Singers, The
EXTT8=Soul Stirrers, The
EXTT9=Yesterday: 08.05.2006
EXTT10=Bells Of Joy, The
EXTT11=Aretha Franklin
EXTT12=Yesterday: 08.05.2006
EXTT13=Yesterday: 08.05.2006
EXTT14=Swan Silvertones, The
EXTT15=Caravans, The
EXTT16=The Harmonizing Four
EXTT17=Highway QCs, The
EXTT18=Staple Singers, The
EXTT19=Swan Silvertones, The
PLAYORDER=
